<svg xmlns="http://www.w3.org/2000/svg" viewBox="0 0 32 32" width="32" height="32">
  <!-- Background circle with gradient-like effect -->
  <defs>
    <linearGradient id="bgGradient" x1="0%" y1="0%" x2="100%" y2="100%">
      <stop offset="0%" style="stop-color:#3B82F6;stop-opacity:1" />
      <stop offset="100%" style="stop-color:#1E40AF;stop-opacity:1" />
    </linearGradient>
  </defs>
  
  <!-- Main background circle -->
  <circle cx="16" cy="16" r="15" fill="url(#bgGradient)" stroke="#1E40AF" stroke-width="1"/>
  
  <!-- Chart bars representing analytics/data -->
  <rect x="8" y="20" width="2" height="6" fill="#FFFFFF" rx="0.5" opacity="0.9"/>
  <rect x="12" y="18" width="2" height="8" fill="#FFFFFF" rx="0.5" opacity="0.9"/>
  <rect x="16" y="16" width="2" height="10" fill="#FFFFFF" rx="0.5" opacity="0.9"/>
  <rect x="20" y="14" width="2" height="12" fill="#FFFFFF" rx="0.5" opacity="0.9"/>
  <rect x="24" y="12" width="2" height="14" fill="#FFFFFF" rx="0.5" opacity="0.9"/>
  
  <!-- Engagement symbols in top section -->
  <!-- Heart for likes -->
  <path d="M10 7 Q10 5 12 5 Q14 5 14 7 Q14 9 12 11 Q10 9 10 7" fill="#EF4444" stroke="#DC2626" stroke-width="0.3"/>
  
  <!-- Retweet arrows -->
  <path d="M18 5 L20 7 L18 9 M20 7 L16 7" stroke="#10B981" stroke-width="1.2" fill="none" stroke-linecap="round" stroke-linejoin="round"/>
  
  <!-- Reply bubble -->
  <path d="M22 7 Q24 7 24 9 Q24 11 22 11 L20 11 L20 9 L22 9" fill="#F59E0B" stroke="#D97706" stroke-width="0.3"/>
  
  <!-- Central engagement meter indicator -->
  <circle cx="16" cy="16" r="2.5" fill="#FFFFFF" stroke="#1E40AF" stroke-width="0.5"/>
  
  <!-- Pulse rings for engagement visualization -->
  <circle cx="16" cy="16" r="4" fill="none" stroke="#FFFFFF" stroke-width="0.8" opacity="0.7"/>
  <circle cx="16" cy="16" r="6" fill="none" stroke="#FFFFFF" stroke-width="0.6" opacity="0.5"/>
  
  <!-- Small accent dots -->
  <circle cx="8" cy="8" r="0.8" fill="#FFFFFF" opacity="0.6"/>
  <circle cx="24" cy="8" r="0.8" fill="#FFFFFF" opacity="0.6"/>
</svg>
